<svg width="36" height="36" viewBox="0 0 36 36" fill="none" xmlns="http://www.w3.org/2000/svg">
<circle cx="18" cy="18" r="18" transform="matrix(1 0 0 -1 0 36)" fill="white"/>
<g clip-path="url(#clip0_214_589)">
<path d="M14.9982 18.9997L19.9982 23.9997C20.2507 24.2678 20.7457 24.2678 20.9982 23.9997C21.2506 23.732 21.2506 23.2675 20.9982 22.9997L16.9982 17.9997L20.9982 13.9997C21.2506 13.7319 21.2506 13.2675 20.9982 12.9997C20.7457 12.7319 20.2507 12.7319 19.9982 12.9997L14.9982 17.9997C14.8719 18.1337 14.9982 17.8243 14.9982 17.9997C14.9982 18.1753 14.8719 18.8659 14.9982 18.9997Z" fill="#FD902C" stroke="#FD902C" stroke-width="0.2"/>
</g>
<defs>
<clipPath id="clip0_214_589">
<rect width="11" height="11" fill="white" transform="translate(12 13)"/>
</clipPath>
</defs>
</svg>
