<svg width="36" height="36" viewBox="0 0 36 36" fill="none" xmlns="http://www.w3.org/2000/svg">
<circle cx="18" cy="18" r="18" transform="matrix(-1 -8.74228e-08 -8.74228e-08 1 36 0)" fill="white"/>
<g clip-path="url(#clip0_214_594)">
<path d="M21.0018 17.0003L16.0018 12.0003C15.7493 11.7322 15.2543 11.7322 15.0018 12.0003C14.7494 12.268 14.7494 12.7325 15.0018 13.0003L19.0018 18.0003L15.0018 22.0003C14.7494 22.2681 14.7494 22.7325 15.0018 23.0003C15.2543 23.2681 15.7493 23.2681 16.0018 23.0003L21.0018 18.0003C21.1281 17.8663 21.0018 18.1757 21.0018 18.0003C21.0018 17.8247 21.1281 17.1341 21.0018 17.0003Z" fill="#FD902C" stroke="#FD902C" stroke-width="0.2"/>
</g>
<defs>
<clipPath id="clip0_214_594">
<rect width="11" height="11" fill="white" transform="translate(24 23) rotate(-180)"/>
</clipPath>
</defs>
</svg>
